<svg width="692" height="73" viewBox="0 0 692 73" fill="none" xmlns="http://www.w3.org/2000/svg">
<path fill-rule="evenodd" clip-rule="evenodd" d="M7 6.5V13H3.5H0V20C0 24 0.429 27 1 27C1.55 27 2 28.575 2 30.5C2 33.567 2.31 34 4.5 34C6.611 34 7 34.467 7 37C7 38.65 7.45 40 8 40C8.55 40 9 41.575 9 43.5V47H22.5H36V49.5V52H18H0V59C0 63 0.429 66 1 66C1.55 66 2 67.575 2 69.5V73H25H48V66.56V60.121L51.75 59.81L55.5 59.5L55.791 51.82L56.082 44.141L53.291 43.82C51.281 43.59 50.411 42.871 50.18 41.25C50.005 40.012 49.442 39 48.93 39C48.419 39 48 37.2 48 35C48 31.4 47.75 31 45.5 31C43.5 31 43 30.5 43 28.5V26H31.5H20V23.523V21.046L37.75 20.773L55.5 20.5L55.791 12.82L56.082 5.141L53.291 4.82C51.281 4.59 50.411 3.871 50.18 2.25L49.861 0H28.43H7V6.5ZM65 6.5V13H61.5H58V33C58 45.667 58.367 53 59 53C59.55 53 60 54.575 60 56.5C60 59.567 60.31 60 62.5 60C64.611 60 65 60.467 65 63C65 64.65 65.45 66 66 66C66.55 66 67 67.575 67 69.5V73H86.5H106V66.5V60H109.5H113V39V18H110.5C108.5 18 108 17.5 108 15.5C108 14.125 107.55 13 107 13C106.45 13 106 11.2 106 9C106 5.4 105.75 5 103.5 5C101.5 5 101 4.5 101 2.5V0H83H65V6.5ZM115 25.8C115 40.213 115.407 52.019 115.923 52.55C116.431 53.073 116.993 54.85 117.173 56.5C117.416 58.725 118.081 59.583 119.75 59.82C121.387 60.052 122 60.809 122 62.601C122 63.955 122.675 65.322 123.5 65.638C124.426 65.994 125 67.513 125 69.607V73H148H171V66.5V60H174.5H178V32.5V5H175.5C173.5 5 173 4.5 173 2.5C173 0.0710001 172.8 0 166 0H159V26V52H147H135V28.5V5H132.5C130.5 5 130 4.5 130 2.5C130 0.056 129.833 0 122.5 0H115V25.8ZM180 33C180 54.333 180.354 66 181 66C181.55 66 182 67.575 182 69.5V73H191H200V60V47H208H216V56.5C216 62.167 216.404 66 217 66C217.55 66 218 67.575 218 69.5V73H227H236V58.5V44H233.5C231.5 44 231 43.5 231 41.5C231 40.125 230.55 39 230 39C229.45 39 229 37.875 229 36.5C229 34.31 229.433 34 232.5 34H236V26C236 18.133 235.958 18 233.5 18C231.5 18 231 17.5 231 15.5C231 14.125 230.55 13 230 13C229.45 13 229 11.23 229 9.066C229 5.519 228.73 5.102 226.25 4.816C224.281 4.59 223.409 3.861 223.18 2.25L222.861 0H201.43H180V33ZM238 33C238 54.333 238.354 66 239 66C239.55 66 240 67.575 240 69.5V73H248.5H257V39V5H254.5C252.5 5 252 4.5 252 2.5C252 0.0710001 251.8 0 245 0H238V33ZM267 6.5V13H262.954H258.909L259.204 19.75C259.473 25.883 259.706 26.529 261.75 26.82C263.379 27.051 264 27.81 264 29.57C264 31.173 264.596 32.04 265.75 32.118C266.712 32.183 266.15 32.58 264.5 33L261.5 33.763L264.25 33.882C266.613 33.983 267 34.423 267 37C267 38.65 267.45 40 268 40C268.55 40 269 41.575 269 43.5V47H282H295V49.5V52H276.954H258.909L259.204 58.75C259.473 64.883 259.706 65.529 261.75 65.82C263.384 66.052 264 66.81 264 68.59V71.041L284.75 70.77L305.5 70.5L305.798 64.25L306.095 58H309.548H313V52.073C313 47.27 312.668 46.06 311.25 45.689C309.933 45.345 310.057 45.203 311.75 45.116C313.88 45.006 314 45.373 314 52V59H310.5H307V65.481V71.962L284.25 72.251L261.5 72.539L284.75 72.77L308 73V66.5V60H311.5H315V52C315 44.133 314.958 44 312.5 44C310.5 44 310 43.5 310 41.5C310 40.125 309.55 39 309 39C308.45 39 308 37.2 308 35C308 31.4 307.75 31 305.5 31C303.5 31 303 30.5 303 28.5V26H291H279V23.5V21H297H315V13C315 5.133 314.958 5 312.5 5C310.5 5 310 4.5 310 2.5V0H288.5H267V6.5ZM317 33C317 54.333 317.354 66 318 66C318.55 66 319 67.575 319 69.5V73H328H337V60V47H345H353V56.5C353 62.167 353.404 66 354 66C354.55 66 355 67.575 355 69.5V73H364H373V39V5H370.5C368.5 5 368 4.5 368 2.5C368 0.056 367.833 0 360.5 0H353V13V26H345H337V15.5V5H334.5C332.5 5 332 4.5 332 2.5C332 0.056 331.833 0 324.5 0H317V33ZM406 6.5V13H402.5H399V33C399 45.667 399.367 53 400 53C400.55 53 401 54.575 401 56.5C401 59.567 401.31 60 403.5 60C405.611 60 406 60.467 406 63C406 64.65 406.45 66 407 66C407.55 66 408 67.575 408 69.5V73H431H454V66.56V60.121L457.75 59.81L461.5 59.5L461.791 51.82L462.082 44.141L459.291 43.82C457.281 43.59 456.411 42.871 456.18 41.25C456.005 40.013 455.442 39 454.93 39C454.419 39 454 37.2 454 35C454 31.4 453.75 31 451.5 31C449.5 31 449 30.5 449 28.5C449 26.071 448.8 26 442 26H435V33C435 37 435.429 40 436 40C436.55 40 437 41.575 437 43.5C437 46.567 437.31 47 439.5 47C441.5 47 442 47.5 442 49.5V52H430H418V36.5V21H436H454V13C454 5.133 453.958 5 451.5 5C449.5 5 449 4.5 449 2.5V0H427.5H406V6.5ZM464 33C464 54.333 464.354 66 465 66C465.55 66 466 67.575 466 69.5V73H474.5H483V60V47H491.5H500V56.5C500 62.167 500.404 66 501 66C501.55 66 502 67.575 502 69.5V73H510.5H519V39V5H516.5C514.5 5 514 4.5 514 2.5C514 0.0710001 513.8 0 507 0H500V13V26H491.5H483V15.5V5H480.5C478.5 5 478 4.5 478 2.5C478 0.0710001 477.8 0 471 0H464V33ZM528 6.5V13H524.5H521V32.441C521 44.323 521.389 52.122 522 52.5C522.55 52.84 523 54.666 523 56.559C523 59.538 523.327 60 525.434 60C527.345 60 527.935 60.59 528.184 62.75C528.41 64.719 529.139 65.591 530.75 65.82C532.385 66.052 533 66.81 533 68.593V71.047L550.25 70.774L567.5 70.5L567.796 64.31C568.091 58.147 568.106 58.118 571.296 57.81L574.5 57.5L574.772 38.828C575.022 21.665 574.9 20.118 573.272 19.694C571.912 19.339 572.023 19.205 573.75 19.116L576 19V39V59H572.5H569V65.478V71.957L549.75 72.251L530.5 72.546L550.25 72.773L570 73V66.5V60H573.5H577V39V18H574.5C572.5 18 572 17.5 572 15.5C572 14.125 571.55 13 571 13C570.45 13 570 11.2 570 9C570 5.4 569.75 5 567.5 5C565.5 5 565 4.5 565 2.5V0H546.5H528V6.5ZM586 6.5V13H582.5H579V20C579 24 579.429 27 580 27C580.55 27 581 28.575 581 30.5C581 33.567 581.31 34 583.5 34C585.611 34 586 34.467 586 37C586 38.65 586.45 40 587 40C587.55 40 588 41.575 588 43.5V47H601.5H615V49.5V52H597H579V59C579 63 579.429 66 580 66C580.55 66 581 67.575 581 69.5V73H604H627V66.56V60.121L630.75 59.81L634.5 59.5L634.791 51.82L635.082 44.141L632.291 43.82C630.281 43.59 629.411 42.871 629.18 41.25C629.005 40.012 628.442 39 627.93 39C627.419 39 627 37.2 627 35C627 31.4 626.75 31 624.5 31C622.5 31 622 30.5 622 28.5V26H609H596V22.5V19H614H632V13.073C632 8.27 631.668 7.06 630.25 6.689C629.173 6.408 629.558 6.187 631.25 6.116C633.998 6 634 6.004 634 12.977V19.955L616.25 20.261L598.5 20.568L616.5 20.534L634.5 20.5L634.791 12.82L635.082 5.141L632.291 4.82C630.281 4.59 629.411 3.871 629.18 2.25L628.861 0H607.43H586V6.5ZM637 33C637 54.333 637.354 66 638 66C638.55 66 639 67.575 639 69.5V73H647.5H656V60V47H664.5H673V56.5C673 62.167 673.404 66 674 66C674.55 66 675 67.575 675 69.5V73H683.5H692V39V5H689.5C687.5 5 687 4.5 687 2.5C687 0.0710001 686.8 0 680 0H673V13V26H664.5H656V15.5V5H653.5C651.5 5 651 4.5 651 2.5C651 0.0710001 650.8 0 644 0H637V33ZM55 13V20H37H19V23C19 25.533 18.611 26 16.5 26C14.111 26 14 25.733 14 20V14H32H50V11C50 8.836 50.488 7.98 51.75 7.93C53.246 7.87 53.21 7.735 51.5 7C49.728 6.238 49.813 6.133 52.25 6.07C54.995 6 55 6.013 55 13ZM104.84 9.75C104.686 13.353 104.664 13.375 104.281 10.312C104.041 8.395 103.208 6.946 102.191 6.678C100.99 6.361 101.151 6.198 102.75 6.116C104.73 6.014 104.981 6.45 104.84 9.75ZM133.77 29.25L133.539 52.5L133.251 29.82C132.99 9.297 132.798 7.096 131.231 6.686C129.951 6.35 130.086 6.202 131.75 6.116L134 6L133.77 29.25ZM177 32.5V59H173.5H170V65.5V72H148H126L126.15 68.75C126.289 65.725 126.329 65.69 126.716 68.25L127.133 71H148.066H169V64.5V58H172.5H176V32.573C176 9.198 175.859 7.11 174.25 6.689C172.933 6.345 173.057 6.203 174.75 6.116L177 6V32.5ZM228 9.5C228 12.567 227.69 13 225.5 13C223.5 13 223 12.5 223 10.5C223 8.812 223.569 7.977 224.75 7.93C226.246 7.87 226.21 7.735 224.5 7C222.728 6.238 222.813 6.133 225.25 6.07C227.74 6.007 228 6.331 228 9.5ZM256 39V72H248.5H241L241.15 68.75C241.289 65.725 241.329 65.69 241.716 68.25C242.121 70.922 242.316 71 248.566 71H255V39.073C255 9.508 254.871 7.113 253.25 6.689C251.933 6.345 252.057 6.203 253.75 6.116L256 6V39ZM314 13V20H296.063H278.127L277.723 23.25C277.326 26.45 277.318 26.442 277.16 22.75L277 19H295H313V13.073C313 8.27 312.668 7.06 311.25 6.689C309.933 6.345 310.057 6.203 311.75 6.116C313.88 6.006 314 6.373 314 13ZM335.791 16.25L335.581 26.5L335.255 16.817C334.981 8.681 334.655 7.061 333.215 6.683C331.967 6.355 332.113 6.2 333.75 6.116C335.957 6.002 335.996 6.194 335.791 16.25ZM372 39V72H364H356L356.1 68.75C356.192 65.751 356.253 65.693 356.895 68C357.545 70.337 358.012 70.5 364.045 70.5H370.5L370.764 38.826C371.01 9.278 370.909 7.121 369.264 6.692C367.92 6.341 368.035 6.204 369.75 6.116L372 6V39ZM453 13V20H435.025H417.05L416.748 36.25L416.447 52.5L416.223 35.75L416 19H434H452V13.073C452 8.27 451.668 7.06 450.25 6.689C448.933 6.345 449.057 6.203 450.75 6.116C452.88 6.006 453 6.373 453 13ZM481.791 16.25L481.581 26.5L481.255 16.817C480.981 8.681 480.655 7.061 479.215 6.683C477.967 6.355 478.113 6.2 479.75 6.116C481.957 6.002 481.996 6.194 481.791 16.25ZM518 39V72H510.5H503L503.15 68.75C503.289 65.725 503.329 65.69 503.716 68.25C504.121 70.922 504.316 71 510.566 71H517V39.073C517 9.508 516.871 7.113 515.25 6.689C513.933 6.345 514.057 6.203 515.75 6.116L518 6V39ZM568.84 9.75C568.686 13.353 568.664 13.375 568.281 10.312C568.041 8.395 567.208 6.946 566.191 6.678C564.99 6.361 565.151 6.198 566.75 6.116C568.73 6.014 568.981 6.45 568.84 9.75ZM654.791 16.25L654.581 26.5L654.255 16.817C653.981 8.681 653.655 7.061 652.215 6.683C650.967 6.355 651.113 6.2 652.75 6.116C654.957 6.002 654.996 6.194 654.791 16.25ZM691 39V72H683.5H676L676.15 68.75C676.289 65.725 676.329 65.69 676.716 68.25C677.121 70.922 677.316 71 683.566 71H690V39.073C690 9.508 689.871 7.113 688.25 6.689C686.933 6.345 687.057 6.203 688.75 6.116L691 6V39ZM103 10.5C103 11.875 102.55 13 102 13C101.45 13 101 11.875 101 10.5C101 9.125 101.45 8 102 8C102.55 8 103 9.125 103 10.5ZM132 30C132 44 131.636 52 131 52C130.364 52 130 44 130 30C130 16 130.364 8 131 8C131.636 8 132 16 132 30ZM175 32.5V57H171.5H168V63.5V70H148C128.741 70 128 69.927 128 68.022C128 66.131 128.828 66.032 146.75 65.772L165.5 65.5L165.798 59.25L166.095 53H169.548H173V30.5C173 16.167 173.363 8 174 8C174.639 8 175 16.833 175 32.5ZM254 39V70H248.5C243.667 70 243 69.758 243 68C243 66.296 243.667 66 247.5 66H252V37C252 18.333 252.356 8 253 8C253.645 8 254 19 254 39ZM312 13V18H294H276V22C276 24.2 275.55 26 275 26C274.444 26 274 23.333 274 20V14H292H310V11C310 9.35 310.45 8 311 8C311.55 8 312 10.25 312 13ZM334 17C334 22.333 333.593 26 333 26C332.407 26 332 22.333 332 17C332 11.667 332.407 8 333 8C333.593 8 334 11.667 334 17ZM370 39V70H364C358.723 70 358 69.766 358 68.055C358 66.444 358.816 66.057 362.75 65.805L367.5 65.5L367.765 36.75C367.932 18.728 368.398 8 369.015 8C369.64 8 370 19.322 370 39ZM451 13V18H433H415V35C415 45.667 414.627 52 414 52C413.368 52 413 45 413 33V14H431H449V11C449 9.35 449.45 8 450 8C450.55 8 451 10.25 451 13ZM480 17C480 22.333 479.593 26 479 26C478.407 26 478 22.333 478 17C478 11.667 478.407 8 479 8C479.593 8 480 11.667 480 17ZM516 39V70H510.5C505.667 70 505 69.758 505 68C505 66.296 505.667 66 509.5 66H514V37C514 18.333 514.356 8 515 8C515.645 8 516 19 516 39ZM567 10.5C567 11.875 566.55 13 566 13C565.45 13 565 11.875 565 10.5C565 9.125 565.45 8 566 8C566.55 8 567 9.125 567 10.5ZM631 13V18H613H595V22C595 24.2 594.55 26 594 26C593.444 26 593 23.333 593 20V14H611H629V11C629 9.35 629.45 8 630 8C630.55 8 631 10.25 631 13ZM653 17C653 22.333 652.593 26 652 26C651.407 26 651 22.333 651 17C651 11.667 651.407 8 652 8C652.593 8 653 11.667 653 17ZM689 39V70H683.5C678.667 70 678 69.758 678 68C678 66.296 678.667 66 682.5 66H687V37C687 18.333 687.356 8 688 8C688.645 8 689 19 689 39ZM94 16C94 17.867 93.333 18 84 18H74V35C74 45.667 73.627 52 73 52C72.368 52 72 45 72 33V14H83C93.333 14 94 14.121 94 16ZM216 16C216 17.86 215.333 18 206.5 18H197V22C197 24.2 196.55 26 196 26C195.444 26 195 23.333 195 20V14H205.5C215.333 14 216 14.127 216 16ZM557 16C557 17.86 556.333 18 547.5 18H538V35C538 45.667 537.627 52 537 52C536.368 52 536 45 536 33V14H546.5C556.333 14 557 14.127 557 16ZM34.5 18L16.5 18.57L34.75 18.785C46.393 18.922 53 18.638 53 18C53 17.45 52.888 17.097 52.75 17.215C52.612 17.333 44.4 17.686 34.5 18ZM85.275 19.745L76.049 20.074L75.748 36.287L75.447 52.5L75.223 35.75L75 19L84.75 19.208L94.5 19.415L85.275 19.745ZM112 39V59H108.5H105V65.5V72H86.5H68L68.15 68.75C68.289 65.725 68.329 65.69 68.716 68.25L69.133 71H86.566H104V64.5V58H107.5H111V39.073C111 21.889 110.839 20.105 109.25 19.689C107.933 19.345 108.057 19.203 109.75 19.116L112 19V39ZM207.811 19.744L199.121 20.076L198.721 23.288C198.332 26.404 198.315 26.388 198.16 22.75L198 19L207.25 19.206L216.5 19.411L207.811 19.744ZM235 26V33H231.5C228.278 33 228 33.238 228 36C228 38.533 227.611 39 225.5 39C223.114 39 223 38.729 223 33.06V27.121L226.75 26.81C230.006 26.541 230.542 26.138 230.816 23.75C231.355 19.072 233 20.722 233 25.94V30.879L229.25 31.309L225.5 31.738L229.5 31.619L233.5 31.5L233.797 25.832C234.047 21.069 233.808 20.091 232.297 19.698C230.887 19.332 230.984 19.207 232.75 19.116C234.88 19.006 235 19.373 235 26ZM548.775 19.744L540.049 20.077L539.748 36.289L539.447 52.5L539.223 35.75L539 19L548.25 19.206L557.5 19.411L548.775 19.744ZM94 36.5V52H85.5H77V36.5V21H85.5H94V36.5ZM110 39V57H106.5H103V63.5V70H86.5C70.667 70 70 69.919 70 68C70 66.086 70.667 66 85.5 66H101V59.5V53H104.5H108V37C108 27 108.375 21 109 21C109.63 21 110 27.667 110 39ZM216 23.5C216 25.958 215.867 26 208 26C200.133 26 200 25.958 200 23.5C200 21.042 200.133 21 208 21C215.867 21 216 21.042 216 23.5ZM557 36.5V52H549H541V36.5V21H549H557V36.5ZM574 39V57H570.5H567V63.5V70H550.5C534.739 70 534 69.912 534 68.026C534 66.159 534.827 66.037 549.25 65.776L564.5 65.5L564.796 59.31C565.091 53.147 565.106 53.118 568.296 52.81L571.5 52.5L571.775 36.75C572.166 14.382 574 16.237 574 39ZM5.81 32.322C7.009 32.638 6.846 32.802 5.25 32.884C3.326 32.983 3.022 32.529 3.15 29.75C3.285 26.816 3.34 26.761 3.71 29.188C3.936 30.667 4.881 32.077 5.81 32.322ZM7 29C7 30.1 6.55 31 6 31C5.45 31 5 30.1 5 29C5 27.9 5.45 27 6 27C6.55 27 7 27.9 7 29ZM267 29C267 30.1 266.55 31 266 31C265.45 31 265 30.1 265 29C265 27.9 265.45 27 266 27C266.55 27 267 27.9 267 29ZM584.81 32.322C586.009 32.638 585.846 32.802 584.25 32.884C582.326 32.983 582.022 32.529 582.15 29.75C582.285 26.816 582.34 26.761 582.71 29.188C582.936 30.667 583.881 32.077 584.81 32.322ZM586 29C586 30.1 585.55 31 585 31C584.45 31 584 30.1 584 29C584 27.9 584.45 27 585 27C585.55 27 586 27.9 586 29ZM46.84 35.75C46.686 39.353 46.664 39.375 46.281 36.312C46.041 34.395 45.208 32.946 44.191 32.678C42.99 32.361 43.151 32.198 44.75 32.116C46.73 32.014 46.981 32.45 46.84 35.75ZM306.84 35.75C306.686 39.353 306.664 39.375 306.281 36.312C306.041 34.395 305.208 32.946 304.191 32.678C302.99 32.361 303.151 32.198 304.75 32.116C306.73 32.014 306.981 32.45 306.84 35.75ZM452.84 35.75C452.686 39.353 452.664 39.375 452.281 36.312C452.041 34.395 451.208 32.946 450.191 32.678C448.99 32.361 449.151 32.198 450.75 32.116C452.73 32.014 452.981 32.45 452.84 35.75ZM625.84 35.75C625.686 39.353 625.664 39.375 625.281 36.312C625.041 34.395 624.208 32.946 623.191 32.678C621.99 32.361 622.151 32.198 623.75 32.116C625.73 32.014 625.981 32.45 625.84 35.75ZM45 36.5C45 37.875 44.55 39 44 39C43.45 39 43 37.875 43 36.5C43 35.125 43.45 34 44 34C44.55 34 45 35.125 45 36.5ZM305 36.5C305 37.875 304.55 39 304 39C303.45 39 303 37.875 303 36.5C303 35.125 303.45 34 304 34C304.55 34 305 35.125 305 36.5ZM451 36.5C451 37.875 450.55 39 450 39C449.45 39 449 37.875 449 36.5C449 35.125 449.45 34 450 34C450.55 34 451 35.125 451 36.5ZM624 36.5C624 37.875 623.55 39 623 39C622.45 39 622 37.875 622 36.5C622 35.125 622.45 34 623 34C623.55 34 624 35.125 624 36.5ZM24.043 45.047L36.5 45.595L23.25 45.797L10 46L10.1 42.75C10.192 39.753 10.253 39.695 10.892 42C11.573 44.456 11.805 44.51 24.043 45.047ZM36 42C36 43.889 35.333 44 24 44C12.667 44 12 43.889 12 42C12 40.111 12.667 40 24 40C35.333 40 36 40.111 36 42ZM216 42C216 43.86 215.333 44 206.5 44H197V57V70H191C185.723 70 185 69.766 185 68.055C185 66.444 185.816 66.057 189.75 65.805L194.5 65.5L194.78 52.75L195.06 40H205.53C215.333 40 216 40.127 216 42ZM283.314 45.254L295.5 45.568L282.75 45.784L270 46L270.15 42.75C270.287 39.769 270.334 39.725 270.713 42.22L271.127 44.939L283.314 45.254ZM295 42C295 43.884 294.333 44 283.5 44C272.667 44 272 43.884 272 42C272 40.116 272.667 40 283.5 40C294.333 40 295 40.116 295 42ZM353 42C353 43.86 352.333 44 343.5 44H334V57V70H328C322.723 70 322 69.766 322 68.055C322 66.444 322.816 66.057 326.75 65.805L331.5 65.5L331.78 52.75L332.06 40H342.53C352.333 40 353 40.127 353 42ZM440.81 45.322C442.009 45.638 441.846 45.802 440.25 45.884C438.326 45.983 438.022 45.529 438.15 42.75C438.285 39.816 438.34 39.761 438.71 42.188C438.936 43.667 439.881 45.077 440.81 45.322ZM442 42C442 43.1 441.55 44 441 44C440.45 44 440 43.1 440 42C440 40.9 440.45 40 441 40C441.55 40 442 40.9 442 42ZM500 42C500 43.867 499.333 44 490 44H480V57V70H474.5C469.667 70 469 69.758 469 68C469 66.296 469.667 66 473.5 66H478V53V40H489C499.333 40 500 40.121 500 42ZM603.043 45.047L615.5 45.595L602.25 45.797L589 46L589.1 42.75C589.192 39.753 589.253 39.695 589.892 42C590.573 44.456 590.805 44.51 603.043 45.047ZM615 42C615 43.889 614.333 44 603 44C591.667 44 591 43.889 591 42C591 40.111 591.667 40 603 40C614.333 40 615 40.111 615 42ZM673 42C673 43.867 672.333 44 663 44H653V57V70H647.5C642.667 70 642 69.758 642 68C642 66.296 642.667 66 646.5 66H651V53V40H662C672.333 40 673 40.121 673 42ZM55 52V59H51H47V65.5V72H25H3L3.15 68.75C3.289 65.725 3.329 65.69 3.716 68.25L4.133 71H25.066H46V64.5V58H49.5C51.425 58 53 57.651 53 57.224C53 56.797 51.2 56.619 49 56.829L45 57.21V63.605V70H25C5.667 70 5 69.933 5 68C5 66.07 5.667 66 24 66H43V59.5V53H46.5C49.722 53 50 52.762 50 50C50 47.836 50.488 46.98 51.75 46.93C53.246 46.87 53.21 46.735 51.5 46C49.728 45.238 49.813 45.133 52.25 45.07C54.995 45 55 45.013 55 52ZM207.75 45.745L199 46.078V59.039V72H191H183L183.1 68.75C183.192 65.751 183.253 65.693 183.895 68C184.545 70.337 185.012 70.5 191.045 70.5H197.5L197.78 57.75L198.06 45L207.28 45.206L216.5 45.411L207.75 45.745ZM235 58.5V72H227H219L219.1 68.75C219.192 65.751 219.253 65.693 219.895 68C220.545 70.337 221.012 70.5 227.045 70.5H233.5L233.78 58.329C234.033 47.363 233.884 46.112 232.28 45.695C230.904 45.337 231.01 45.206 232.75 45.116C234.978 45.001 235 45.132 235 58.5ZM344.75 45.745L336 46.078V59.039V72H328H320L320.1 68.75C320.192 65.751 320.253 65.693 320.895 68C321.545 70.337 322.012 70.5 328.045 70.5H334.5L334.78 57.75L335.06 45L344.28 45.206L353.5 45.411L344.75 45.745ZM461 52V59H457H453V65.5V72H431H409L409.15 68.75C409.289 65.725 409.329 65.69 409.716 68.25L410.133 71H431.066H452V64.5V58H455.5C457.425 58 459 57.651 459 57.224C459 56.797 457.2 56.619 455 56.829L451 57.21V63.605V70H431C411.667 70 411 69.933 411 68C411 66.07 411.667 66 430 66H449V59.5V53H452.5C455.722 53 456 52.762 456 50C456 47.836 456.488 46.98 457.75 46.93C459.246 46.87 459.21 46.735 457.5 46C455.728 45.238 455.813 45.133 458.25 45.07C460.995 45 461 45.013 461 52ZM491.25 45.745L482 46.075V59.038V72H474.5H467L467.15 68.75C467.289 65.725 467.329 65.69 467.716 68.25C468.121 70.922 468.316 71 474.566 71H481V58V45L490.75 45.208L500.5 45.415L491.25 45.745ZM634 52V59H630H626V65.5V72H604H582L582.15 68.75C582.289 65.725 582.329 65.69 582.716 68.25L583.133 71H604.066H625V64.5V58H628.5H632V52.073C632 47.27 631.668 46.06 630.25 45.689C629.173 45.408 629.558 45.187 631.25 45.116C633.999 45 634 45.002 634 52ZM664.25 45.745L655 46.075V59.038V72H647.5H640L640.15 68.75C640.289 65.725 640.329 65.69 640.716 68.25C641.121 70.922 641.316 71 647.566 71H654V58V45L663.75 45.208L673.5 45.415L664.25 45.745ZM233 58.5V70H227C221.723 70 221 69.766 221 68.055C221 66.444 221.816 66.057 225.75 65.805L230.5 65.5L230.788 56.25C231.204 42.856 233 44.683 233 58.5ZM312 52V57H308.5H305V63.5V70H285C265.741 70 265 69.927 265 68.022C265 66.131 265.828 66.032 283.75 65.772L302.5 65.5L302.798 59.25L303.095 53H306.548C309.717 53 310 52.754 310 50C310 48.35 310.45 47 311 47C311.55 47 312 49.25 312 52ZM631 52V57H627.5H624V63.5V70H604C584.667 70 584 69.933 584 68C584 66.07 584.667 66 603 66H622V59.5V53H625.5C628.722 53 629 52.762 629 50C629 48.35 629.45 47 630 47C630.55 47 631 49.25 631 52ZM63.81 58.322C65.009 58.638 64.846 58.802 63.25 58.884C61.326 58.983 61.022 58.529 61.15 55.75C61.285 52.816 61.34 52.761 61.71 55.188C61.936 56.667 62.881 58.077 63.81 58.322ZM65 55C65 56.1 64.55 57 64 57C63.45 57 63 56.1 63 55C63 53.9 63.45 53 64 53C64.55 53 65 53.9 65 55ZM122 55.059C122 56.191 121.55 56.84 121 56.5C120.45 56.16 120 56.321 120 56.858C120 57.394 120.563 58.06 121.25 58.338C121.938 58.615 121.487 58.878 120.25 58.921C118.399 58.986 118 58.468 118 56C118 53.667 118.444 53 120 53C121.352 53 122 53.667 122 55.059ZM404.81 58.322C406.009 58.638 405.846 58.802 404.25 58.884C402.326 58.983 402.022 58.529 402.15 55.75C402.285 52.816 402.34 52.761 402.71 55.188C402.936 56.667 403.881 58.077 404.81 58.322ZM406 55C406 56.1 405.55 57 405 57C404.45 57 404 56.1 404 55C404 53.9 404.45 53 405 53C405.55 53 406 53.9 406 55ZM526.775 57.75C528.2 58.859 528.134 59 526.191 59C524.362 59 524.019 58.463 524.116 55.75C524.19 53.682 524.402 53.228 524.7 54.5C524.958 55.6 525.892 57.063 526.775 57.75ZM528 55.059C528 56.191 527.55 56.84 527 56.5C526.45 56.16 526 55.234 526 54.441C526 53.648 526.45 53 527 53C527.55 53 528 53.927 528 55.059Z" fill="black"/>
</svg>
