<svg width="1255" height="900" viewBox="0 0 1255 900" fill="none" xmlns="http://www.w3.org/2000/svg">
<circle cx="805" cy="450" r="450" fill="#D9D9D9"/>
<path d="M86.3543 293.49C58.8865 284.428 58.8866 245.572 86.3545 236.51L616.851 61.492C636.26 55.0887 656.25 69.5437 656.25 89.9816V440.018C656.25 460.456 636.26 474.911 616.851 468.508L86.3543 293.49Z" fill="#D9D9D9"/>
<path d="M86.3543 663.49C58.8865 654.428 58.8866 615.572 86.3545 606.51L616.851 431.492C636.26 425.089 656.25 439.544 656.25 459.982V810.018C656.25 830.456 636.26 844.911 616.851 838.508L86.3543 663.49Z" fill="#D9D9D9"/>
<rect x="329" y="307" width="52" height="285" fill="#D9D9D9"/>
<circle cx="805" cy="450" r="350" fill="#C8C8C8"/>
<circle cx="805" cy="450" r="150" fill="#E9E9E9"/>
<line x1="802.5" y1="300" x2="802.5" y2="100" stroke="#B6A3A3" stroke-width="5"/>
<line x1="953" y1="435.5" x2="1153" y2="435.5" stroke="#B6A3A3" stroke-width="5"/>
<line x1="455" y1="435.5" x2="655" y2="435.5" stroke="#B6A3A3" stroke-width="5"/>
<line x1="910.232" y1="339.654" x2="1051.65" y2="198.232" stroke="#B6A3A3" stroke-width="5"/>
<line x1="553.232" y1="698.654" x2="694.654" y2="557.232" stroke="#B6A3A3" stroke-width="5"/>
<line x1="1051.65" y1="702.189" x2="910.232" y2="560.768" stroke="#B6A3A3" stroke-width="5"/>
<line x1="694.654" y1="343.189" x2="553.232" y2="201.768" stroke="#B6A3A3" stroke-width="5"/>
<line x1="802.5" y1="800" x2="802.5" y2="600" stroke="#B6A3A3" stroke-width="5"/>
</svg>
