<svg width="483" height="454" viewBox="0 0 483 454" fill="none" xmlns="http://www.w3.org/2000/svg">
<rect x="194" y="444" width="91" height="10" rx="5" fill="#D9D9D9"/>
<rect x="194" y="4" width="91" height="10" rx="5" fill="#D9D9D9"/>
<rect x="144" width="100" height="450" rx="40" fill="#D9D9D9"/>
<path d="M298.79 362.008C315.532 370.54 315.532 394.46 298.79 402.992L250.944 427.377C235.641 435.175 217.5 424.06 217.5 406.885V358.116C217.5 340.94 235.641 329.825 250.944 337.623L298.79 362.008Z" fill="#D9D9D9"/>
<path d="M298.79 55.0078C315.532 63.54 315.532 87.46 298.79 95.9922L250.944 120.377C235.641 128.175 217.5 117.06 217.5 99.8845V51.1155C217.5 33.9405 235.641 22.8246 250.944 30.6233L298.79 55.0078Z" fill="#D9D9D9"/>
<path d="M223.393 363.974C232.467 375.035 232.467 390.965 223.393 402.026L203.151 426.702C195.553 435.965 183.173 439.819 171.66 436.506L134.072 425.689C121.22 421.99 112.369 410.232 112.369 396.859V369.141C112.369 355.768 121.22 344.01 134.072 340.311L171.66 329.494C183.173 326.181 195.553 330.035 203.151 339.298L223.393 363.974Z" fill="#D9D9D9"/>
<path d="M223.393 57.9736C232.467 69.0352 232.467 84.9648 223.393 96.0264L203.151 120.702C195.553 129.965 183.173 133.819 171.66 130.506L134.072 119.689C121.22 115.99 112.369 104.232 112.369 90.8587V63.1414C112.369 49.7682 121.22 38.0099 134.072 34.3114L171.66 23.4942C183.173 20.1809 195.553 24.035 203.151 33.2977L223.393 57.9736Z" fill="#D9D9D9"/>
<rect x="70" y="155" width="377" height="140" rx="40" fill="#D8D4D4"/>
<path d="M70.5 139L131.555 182V268L70.5 311L9.44521 268V182L70.5 139Z" fill="#D8D4D4"/>
<ellipse cx="405.5" cy="224.5" rx="77.5" ry="47.5" fill="#D8D4D4"/>
</svg>
